<svg width="204" height="22" viewBox="0 0 204 22" fill="none" xmlns="http://www.w3.org/2000/svg">
<path d="M11.016 17.856L1.03712e-05 13.176V10.104L11.016 5.39997V8.61597L3.88801 11.64L11.016 14.664V17.856ZM177.795 21.048L185.763 1.24797H189.195L181.227 21.048H177.795ZM192.847 17.856V14.664L199.951 11.64L192.847 8.61597V5.39997L203.839 10.104V13.176L192.847 17.856Z" fill="#D2FF53"/>
<path d="M22.0438 18.456C20.7318 18.456 19.5638 18.16 18.5398 17.568C17.5158 16.96 16.7078 16.144 16.1158 15.12C15.5238 14.08 15.2278 12.912 15.2278 11.616C15.2278 10.32 15.5238 9.16797 16.1158 8.15997C16.7078 7.13597 17.5158 6.32797 18.5398 5.73597C19.5638 5.12797 20.7318 4.82397 22.0438 4.82397C22.9718 4.82397 23.8358 4.99197 24.6358 5.32797C25.4358 5.64797 26.1238 6.09597 26.6998 6.67197C27.2758 7.24797 27.6998 7.91997 27.9718 8.68797L25.2118 9.88797C24.9718 9.23197 24.5638 8.70397 23.9878 8.30397C23.4278 7.90397 22.7798 7.70397 22.0438 7.70397C21.3558 7.70397 20.7398 7.87997 20.1958 8.23197C19.6678 8.56797 19.2518 9.03197 18.9478 9.62397C18.6438 10.2 18.4918 10.872 18.4918 11.64C18.4918 12.408 18.6438 13.088 18.9478 13.68C19.2518 14.272 19.6678 14.736 20.1958 15.072C20.7398 15.408 21.3558 15.576 22.0438 15.576C22.7958 15.576 23.4438 15.384 23.9878 15C24.5478 14.6 24.9558 14.056 25.2118 13.368L27.9718 14.616C27.7158 15.368 27.2998 16.032 26.7238 16.608C26.1478 17.184 25.4598 17.64 24.6598 17.976C23.8598 18.296 22.9878 18.456 22.0438 18.456ZM35.0704 18.456C33.7104 18.456 32.6224 18.12 31.8064 17.448C30.9904 16.776 30.5824 15.864 30.5824 14.712C30.5824 13.624 30.9504 12.72 31.6864 12C32.4224 11.28 33.5584 10.792 35.0944 10.536L38.9824 9.91197V9.47997C38.9824 8.91997 38.7584 8.45597 38.3104 8.08797C37.8784 7.70397 37.3024 7.51197 36.5824 7.51197C35.8944 7.51197 35.2944 7.69597 34.7824 8.06397C34.2704 8.41597 33.8944 8.88797 33.6544 9.47997L31.0864 8.23197C31.4704 7.20797 32.1744 6.38397 33.1984 5.75997C34.2224 5.13597 35.3904 4.82397 36.7024 4.82397C37.7744 4.82397 38.7104 5.02397 39.5104 5.42397C40.3264 5.82397 40.9664 6.37597 41.4304 7.07997C41.8944 7.76797 42.1264 8.56797 42.1264 9.47997V18.168H39.1504V16.8C38.1264 17.904 36.7664 18.456 35.0704 18.456ZM33.8464 14.592C33.8464 15.04 34.0144 15.4 34.3504 15.672C34.6864 15.928 35.1184 16.056 35.6464 16.056C36.6384 16.056 37.4384 15.752 38.0464 15.144C38.6704 14.52 38.9824 13.752 38.9824 12.84V12.312L35.6944 12.864C34.4624 13.088 33.8464 13.664 33.8464 14.592ZM45.8323 18.168V-3.19481e-05H48.9763V18.168H45.8323ZM52.6792 18.168V-3.19481e-05H55.8232V18.168H52.6792ZM65.4781 18.312C64.0061 18.312 62.8621 17.912 62.0461 17.112C61.2461 16.296 60.8461 15.152 60.8461 13.68V7.91997H58.5901V5.11197H58.8301C59.4701 5.11197 59.9661 4.94397 60.3181 4.60797C60.6701 4.27197 60.8461 3.78397 60.8461 3.14397V2.13597H63.9901V5.11197H66.9901V7.91997H63.9901V13.512C63.9901 14.168 64.1661 14.672 64.5181 15.024C64.8701 15.376 65.4301 15.552 66.1981 15.552C66.4381 15.552 66.7181 15.528 67.0381 15.48V18.168C66.8141 18.2 66.5581 18.232 66.2701 18.264C65.9821 18.296 65.7181 18.312 65.4781 18.312ZM76.507 18.456C75.227 18.456 74.059 18.16 73.003 17.568C71.963 16.976 71.131 16.168 70.507 15.144C69.899 14.12 69.595 12.952 69.595 11.64C69.595 10.328 69.899 9.15997 70.507 8.13597C71.131 7.11197 71.963 6.30397 73.003 5.71197C74.043 5.11997 75.211 4.82397 76.507 4.82397C77.771 4.82397 78.923 5.11997 79.963 5.71197C81.003 6.30397 81.835 7.11197 82.459 8.13597C83.083 9.15997 83.395 10.328 83.395 11.64C83.395 12.952 83.083 14.128 82.459 15.168C81.835 16.192 81.003 17 79.963 17.592C78.923 18.168 77.771 18.456 76.507 18.456ZM76.507 15.576C77.195 15.576 77.811 15.408 78.355 15.072C78.899 14.736 79.323 14.272 79.627 13.68C79.947 13.088 80.107 12.408 80.107 11.64C80.107 10.888 79.947 10.216 79.627 9.62397C79.323 9.03197 78.899 8.56797 78.355 8.23197C77.811 7.87997 77.195 7.70397 76.507 7.70397C75.787 7.70397 75.155 7.87997 74.611 8.23197C74.067 8.56797 73.635 9.03197 73.315 9.62397C73.011 10.216 72.859 10.888 72.859 11.64C72.859 12.408 73.011 13.088 73.315 13.68C73.635 14.272 74.067 14.736 74.611 15.072C75.155 15.408 75.787 15.576 76.507 15.576ZM90.5392 18.456C89.1792 18.456 88.0912 18.12 87.2752 17.448C86.4592 16.776 86.0512 15.864 86.0512 14.712C86.0512 13.624 86.4192 12.72 87.1552 12C87.8912 11.28 89.0272 10.792 90.5632 10.536L94.4512 9.91197V9.47997C94.4512 8.91997 94.2272 8.45597 93.7792 8.08797C93.3472 7.70397 92.7712 7.51197 92.0512 7.51197C91.3632 7.51197 90.7632 7.69597 90.2512 8.06397C89.7392 8.41597 89.3632 8.88797 89.1232 9.47997L86.5552 8.23197C86.9392 7.20797 87.6432 6.38397 88.6672 5.75997C89.6912 5.13597 90.8592 4.82397 92.1712 4.82397C93.2432 4.82397 94.1792 5.02397 94.9792 5.42397C95.7952 5.82397 96.4352 6.37597 96.8992 7.07997C97.3632 7.76797 97.5952 8.56797 97.5952 9.47997V18.168H94.6192V16.8C93.5952 17.904 92.2352 18.456 90.5392 18.456ZM89.3152 14.592C89.3152 15.04 89.4832 15.4 89.8192 15.672C90.1552 15.928 90.5872 16.056 91.1152 16.056C92.1072 16.056 92.9072 15.752 93.5152 15.144C94.1392 14.52 94.4512 13.752 94.4512 12.84V12.312L91.1632 12.864C89.9312 13.088 89.3152 13.664 89.3152 14.592ZM107.589 18.456C106.277 18.456 105.109 18.16 104.085 17.568C103.061 16.96 102.253 16.144 101.661 15.12C101.069 14.08 100.773 12.912 100.773 11.616C100.773 10.32 101.069 9.16797 101.661 8.15997C102.253 7.13597 103.061 6.32797 104.085 5.73597C105.109 5.12797 106.277 4.82397 107.589 4.82397C108.517 4.82397 109.381 4.99197 110.181 5.32797C110.981 5.64797 111.669 6.09597 112.245 6.67197C112.821 7.24797 113.245 7.91997 113.517 8.68797L110.757 9.88797C110.517 9.23197 110.109 8.70397 109.533 8.30397C108.973 7.90397 108.325 7.70397 107.589 7.70397C106.901 7.70397 106.285 7.87997 105.741 8.23197C105.213 8.56797 104.797 9.03197 104.493 9.62397C104.189 10.2 104.037 10.872 104.037 11.64C104.037 12.408 104.189 13.088 104.493 13.68C104.797 14.272 105.213 14.736 105.741 15.072C106.285 15.408 106.901 15.576 107.589 15.576C108.341 15.576 108.989 15.384 109.533 15C110.093 14.6 110.501 14.056 110.757 13.368L113.517 14.616C113.261 15.368 112.845 16.032 112.269 16.608C111.693 17.184 111.005 17.64 110.205 17.976C109.405 18.296 108.533 18.456 107.589 18.456ZM122.655 18.312C121.183 18.312 120.039 17.912 119.223 17.112C118.423 16.296 118.023 15.152 118.023 13.68V7.91997H115.767V5.11197H116.007C116.647 5.11197 117.143 4.94397 117.495 4.60797C117.847 4.27197 118.023 3.78397 118.023 3.14397V2.13597H121.167V5.11197H124.167V7.91997H121.167V13.512C121.167 14.168 121.343 14.672 121.695 15.024C122.047 15.376 122.607 15.552 123.375 15.552C123.615 15.552 123.895 15.528 124.215 15.48V18.168C123.991 18.2 123.735 18.232 123.447 18.264C123.159 18.296 122.895 18.312 122.655 18.312ZM127.417 3.64797V0.287967H130.561V3.64797H127.417ZM127.417 18.168V5.11197H130.561V18.168H127.417ZM140.648 18.456C139.368 18.456 138.2 18.16 137.144 17.568C136.104 16.976 135.272 16.168 134.648 15.144C134.04 14.12 133.736 12.952 133.736 11.64C133.736 10.328 134.04 9.15997 134.648 8.13597C135.272 7.11197 136.104 6.30397 137.144 5.71197C138.184 5.11997 139.352 4.82397 140.648 4.82397C141.912 4.82397 143.064 5.11997 144.104 5.71197C145.144 6.30397 145.976 7.11197 146.6 8.13597C147.224 9.15997 147.536 10.328 147.536 11.64C147.536 12.952 147.224 14.128 146.6 15.168C145.976 16.192 145.144 17 144.104 17.592C143.064 18.168 141.912 18.456 140.648 18.456ZM140.648 15.576C141.336 15.576 141.952 15.408 142.496 15.072C143.04 14.736 143.464 14.272 143.768 13.68C144.088 13.088 144.248 12.408 144.248 11.64C144.248 10.888 144.088 10.216 143.768 9.62397C143.464 9.03197 143.04 8.56797 142.496 8.23197C141.952 7.87997 141.336 7.70397 140.648 7.70397C139.928 7.70397 139.296 7.87997 138.752 8.23197C138.208 8.56797 137.776 9.03197 137.456 9.62397C137.152 10.216 137 10.888 137 11.64C137 12.408 137.152 13.088 137.456 13.68C137.776 14.272 138.208 14.736 138.752 15.072C139.296 15.408 139.928 15.576 140.648 15.576ZM150.72 18.168V5.11197H153.672V6.71997C154.024 6.09597 154.52 5.62397 155.16 5.30397C155.8 4.98397 156.536 4.82397 157.368 4.82397C158.328 4.82397 159.176 5.03997 159.912 5.47197C160.648 5.88797 161.224 6.46397 161.64 7.19997C162.072 7.93597 162.288 8.79197 162.288 9.76797V18.168H159.144V10.512C159.144 9.64797 158.896 8.96797 158.4 8.47197C157.92 7.95997 157.288 7.70397 156.504 7.70397C155.72 7.70397 155.08 7.95997 154.584 8.47197C154.104 8.98397 153.864 9.66397 153.864 10.512V18.168H150.72ZM170.714 18.456C169.322 18.456 168.106 18.128 167.066 17.472C166.042 16.8 165.338 15.896 164.954 14.76L167.306 13.632C167.642 14.368 168.106 14.944 168.698 15.36C169.306 15.776 169.978 15.984 170.714 15.984C171.274 15.984 171.722 15.864 172.058 15.624C172.41 15.368 172.586 15.024 172.586 14.592C172.586 14.208 172.434 13.912 172.13 13.704C171.842 13.496 171.49 13.336 171.074 13.224L168.938 12.624C167.834 12.32 166.994 11.84 166.418 11.184C165.858 10.512 165.578 9.72797 165.578 8.83197C165.578 8.03197 165.786 7.33597 166.202 6.74397C166.618 6.13597 167.186 5.66397 167.906 5.32797C168.626 4.99197 169.458 4.82397 170.402 4.82397C171.634 4.82397 172.722 5.12797 173.666 5.73597C174.61 6.32797 175.282 7.15197 175.682 8.20797L173.282 9.33597C173.058 8.74397 172.682 8.27197 172.154 7.91997C171.626 7.56797 171.034 7.39197 170.378 7.39197C169.85 7.39197 169.434 7.51197 169.13 7.75197C168.826 7.99197 168.674 8.30397 168.674 8.68797C168.674 9.05597 168.81 9.34397 169.082 9.55197C169.37 9.75997 169.746 9.92797 170.21 10.056L172.298 10.68C173.37 11 174.194 11.488 174.77 12.144C175.362 12.784 175.658 13.56 175.658 14.472C175.658 15.272 175.45 15.968 175.034 16.56C174.618 17.152 174.034 17.616 173.282 17.952C172.546 18.288 171.69 18.456 170.714 18.456Z" fill="white"/>
</svg>
